<svg width="82" height="62" viewBox="0 0 82 62" fill="none" xmlns="http://www.w3.org/2000/svg">
<path d="M82 7.64775V56.3627C82 59.477 79.4887 62 76.3888 62H63.3516V30.1475L57.191 34.8288L41.0736 47.079L24.9659 34.8288L18.7171 30.0785V62H5.78777C2.58978 62 0 59.3982 0 56.1853V8.78112C0 3.93228 3.9141 0 8.74052 0C9.59397 0 10.4474 0.137975 11.242 0.413925C12.0464 0.680019 12.8018 1.08409 13.4885 1.60642L18.7171 5.57813L41.0736 22.5786L63.3418 5.64712L67.8837 2.19774C69.7574 0.768717 72.0431 0 74.3876 0C76.4869 0 78.39 0.857415 79.7732 2.23716C81.1465 3.62677 82 5.53871 82 7.64775Z" fill="#1B3461"/>
</svg>
