<svg width="76" height="73" viewBox="0 0 76 73" fill="none" xmlns="http://www.w3.org/2000/svg">
<path d="M12.5391 73H1.3859C0.620354 73 0 72.376 0 71.6059V21.4565C0 20.6864 0.620354 20.0624 1.3859 20.0624H12.5391C13.3046 20.0624 13.925 20.6864 13.925 21.4565V71.6059C13.925 72.376 13.2914 73 12.5391 73Z" fill="#1B3461"/>
<path d="M7.47065 12.9722H6.45433C2.89059 12.9722 0 10.0777 0 6.49272C0 2.90778 2.89059 0 6.45433 0H7.47065C11.0344 0 13.925 2.90778 13.925 6.49272C13.925 10.0777 11.0344 12.9722 7.47065 12.9722Z" fill="#1B3461"/>
<path d="M76 40.1513V72.0042C76 72.5486 75.5644 73 75.0101 73H63.0649C62.5238 73 62.075 72.5618 62.075 72.0042V46.02C62.075 40.3106 61.7714 36.6195 61.1775 34.9465C60.5835 33.2735 59.6068 31.9723 58.2737 31.0429C56.9274 30.1135 55.3171 29.6488 53.4297 29.6488C51.0142 29.6488 48.8364 30.3126 46.9225 31.6404C44.9955 32.9682 43.6888 34.7208 42.976 36.9116C42.2633 39.1024 41.9069 43.152 41.9069 49.0473V71.8714C41.9069 72.1768 41.7881 72.4556 41.5769 72.6548C41.3789 72.8539 41.1018 72.9867 40.7982 72.9867H28.9323C28.4043 72.9867 27.9819 72.5618 27.9819 72.0307V21.0183C27.9819 20.4872 28.4043 20.0624 28.9323 20.0624H40.0194C40.4022 20.0624 40.7322 20.2881 40.8774 20.6067C40.9434 20.7262 40.9698 20.8723 40.9698 21.0183V27.7102C45.5498 21.8814 51.3178 18.9603 58.2605 18.9603C60.7683 18.9603 63.0913 19.3321 65.2428 20.0624C65.7443 20.235 66.2327 20.4209 66.7079 20.6333C69.2553 21.7486 71.1824 23.1693 72.4891 24.8821C73.7958 26.6082 74.7065 28.56 75.2213 30.7508C75.7492 32.9416 76 36.0751 76 40.1513Z" fill="#1B3461"/>
</svg>
