<svg xmlns="http://www.w3.org/2000/svg" viewBox="0 0 334.24 511.44">
  <defs>
    <style>
      .cls-1 {
        fill: #e8c135;
      }
    </style>
  </defs>
  <g id="Calque_2" data-name="Calque 2">
    <g id="Calque_1-2" data-name="Calque 1">
      <path id="Logo" class="cls-1"
        d="M201,511.44H135.17a15.56,15.56,0,0,1-15.56-15.56V445.67h97v50.21A15.56,15.56,0,0,1,201,511.44ZM168.31,0A167.13,167.13,0,0,0,56.9,292.75q2.18,1.92,4.43,3.76A52.82,52.82,0,0,1,80.56,337.4v30.44A13.15,13.15,0,0,0,93.7,381h25.91V167.13l24.24-42,24.25-42,48.48,84V381h20.79a13.12,13.12,0,0,0,13.14-13.14V329.25A31.81,31.81,0,0,1,264,303.36a169.58,169.58,0,0,0,13.72-10.91,166.7,166.7,0,0,0,56.57-125.91C333.92,75.3,259.55.64,168.31,0Z" />
    </g>
  </g>
</svg>