<svg width="579" height="642" viewBox="0 0 579 642" fill="none" xmlns="http://www.w3.org/2000/svg">
<path d="M289.45 211.8C303.948 211.8 315.7 200.048 315.7 185.55C315.7 171.053 303.948 159.3 289.45 159.3C274.953 159.3 263.2 171.053 263.2 185.55C263.2 200.048 274.953 211.8 289.45 211.8Z" fill="#E8C135"/>
<path d="M326.11 337.71H252.81V387.43H326.11V337.71Z" fill="white"/>
<path d="M415.07 125.9C415.147 143.895 411.369 161.698 403.99 178.111C396.611 194.523 385.802 209.165 372.29 221.05C368.981 223.985 365.516 226.739 361.91 229.3C358.848 231.53 356.371 234.469 354.692 237.865C353.013 241.261 352.182 245.013 352.27 248.8V288H326.11V126.32L289.45 62.8501L252.8 126.32V288H226.66V248.8C226.745 245.011 225.911 241.258 224.229 237.862C222.547 234.466 220.066 231.528 217 229.3C199.326 216.895 185.142 200.15 175.814 180.675C166.486 161.201 162.328 139.653 163.74 118.106C165.152 96.5592 172.086 75.7384 183.875 57.6477C195.665 39.5569 211.912 24.8053 231.054 14.8125C250.196 4.81981 271.587 -0.0775907 293.17 0.591706C314.753 1.261 335.8 7.47446 354.286 18.6341C372.772 29.7937 388.074 45.5237 398.719 64.3102C409.365 83.0966 414.996 104.307 415.07 125.9Z" fill="white"/>
<path d="M289.46 509.11C289.46 509.11 244.69 474.67 263.21 404.11H315.71C334.23 474.67 289.46 509.11 289.46 509.11Z" fill="white"/>
<path d="M221.57 398.4H163.85C163.85 398.4 150.09 300.77 199.35 241.05L221.57 398.4Z" fill="#E8C135"/>
<path d="M358.45 398.4H416.17C416.17 398.4 429.93 300.77 380.67 241.05L358.45 398.4Z" fill="#E8C135"/>
<path d="M280.67 599.87C280.67 606.345 278.745 612.674 275.138 618.052C271.532 623.429 266.407 627.613 260.416 630.07C254.426 632.527 247.84 633.147 241.496 631.851C235.152 630.554 229.337 627.4 224.79 622.79C220.77 627.907 215.752 632.153 210.04 635.27C204.329 638.387 198.043 640.31 191.565 640.923C185.087 641.535 178.552 640.824 172.358 638.833C166.163 636.842 160.438 633.612 155.53 629.34C150.28 633.661 144.229 636.904 137.725 638.885C131.22 640.866 124.389 641.546 117.622 640.886C110.854 640.226 104.283 638.238 98.2845 635.037C92.2856 631.836 86.9763 627.484 82.6601 622.23C76.3941 626.914 69.1472 630.114 61.465 631.591C53.7828 633.068 45.8657 632.783 38.3097 630.757C30.7538 628.731 23.756 625.017 17.8434 619.895C11.9307 614.772 7.2573 608.375 4.17507 601.185C1.09283 593.995 -0.31789 586.199 0.0491356 578.385C0.416161 570.571 2.55136 562.942 6.29396 556.072C10.0366 549.203 15.289 543.272 21.6557 538.726C28.0225 534.181 35.3375 531.139 43.0501 529.83C42.8634 527.75 42.7668 525.644 42.7601 523.51C42.7634 505.928 49.4199 488.999 61.3923 476.123C73.3648 463.247 89.7662 455.378 107.302 454.098C124.837 452.818 142.207 458.221 155.923 469.221C169.639 480.222 178.683 496.005 181.24 513.4C188.706 512.005 196.388 512.271 203.74 514.181C211.092 516.09 217.932 519.596 223.776 524.448C229.619 529.301 234.322 535.381 237.549 542.257C240.777 549.132 242.45 556.635 242.45 564.23C242.45 565.41 242.45 566.57 242.33 567.73C247.026 566.899 251.846 567.107 256.453 568.338C261.06 569.57 265.341 571.796 268.995 574.859C272.65 577.923 275.589 581.749 277.606 586.07C279.623 590.391 280.669 595.102 280.67 599.87Z" fill="white"/>
<path d="M298.31 599.87C298.31 606.345 300.235 612.674 303.842 618.052C307.449 623.429 312.573 627.613 318.564 630.07C324.554 632.527 331.141 633.147 337.484 631.851C343.828 630.554 349.643 627.4 354.19 622.79C358.21 627.907 363.228 632.153 368.94 635.27C374.651 638.387 380.937 640.31 387.415 640.923C393.893 641.535 400.428 640.824 406.622 638.833C412.817 636.842 418.542 633.612 423.45 629.34C428.7 633.661 434.751 636.904 441.255 638.885C447.76 640.866 454.591 641.546 461.358 640.886C468.126 640.226 474.697 638.238 480.696 635.037C486.695 631.836 492.004 627.484 496.32 622.23C502.586 626.914 509.833 630.114 517.515 631.591C525.197 633.068 533.115 632.783 540.67 630.757C548.226 628.731 555.224 625.017 561.137 619.895C567.049 614.772 571.723 608.375 574.805 601.185C577.887 593.995 579.298 586.199 578.931 578.385C578.564 570.571 576.429 562.942 572.686 556.072C568.944 549.203 563.691 543.272 557.324 538.726C550.958 534.181 543.643 531.139 535.93 529.83C536.123 527.75 536.22 525.644 536.22 523.51C536.217 505.928 529.56 488.999 517.588 476.123C505.615 463.247 489.214 455.378 471.679 454.098C454.143 452.818 436.773 458.221 423.057 469.221C409.342 480.222 400.297 496.005 397.74 513.4C390.274 512.005 382.592 512.271 375.24 514.181C367.889 516.09 361.048 519.596 355.205 524.448C349.361 529.301 344.659 535.381 341.431 542.257C338.203 549.132 336.53 556.635 336.53 564.23C336.53 565.41 336.53 566.57 336.65 567.73C331.954 566.899 327.134 567.107 322.527 568.338C317.92 569.57 313.639 571.796 309.985 574.859C306.331 577.923 303.392 581.749 301.375 586.07C299.358 590.391 298.312 595.102 298.31 599.87Z" fill="white"/>
</svg>
