<svg width="512" height="789" viewBox="0 0 512 789" fill="none" xmlns="http://www.w3.org/2000/svg">
<path d="M329.851 687.376H180.677V788.619H329.851V687.376Z" fill="black"/>
<path d="M511.012 256.286C511.153 292.912 503.458 329.143 488.442 362.549C473.426 395.954 451.438 425.761 423.953 449.969C417.199 455.9 410.147 461.483 402.824 466.696C396.611 471.255 391.588 477.245 388.182 484.159C384.777 491.073 383.088 498.705 383.26 506.41V586.231H329.949V257.167L255.313 127.948L180.677 257.167V586.231H127.463V506.41C127.635 498.705 125.947 491.073 122.541 484.159C119.135 477.245 114.113 471.255 107.899 466.696C100.524 461.51 93.4382 455.926 86.6722 449.969C47.7182 415.449 20.1463 369.929 7.59505 319.416C-4.9562 268.903 -1.89687 215.772 16.3693 167.034C34.6355 118.296 67.25 76.2419 109.909 46.421C152.568 16.6002 203.266 0.414568 255.313 0C323.04 0.614634 387.81 27.832 435.647 75.7789C483.484 123.726 510.553 188.558 511.012 256.286Z" fill="black"/>
</svg>
